<svg width="37" height="43" viewBox="0 0 37 43" fill="none" xmlns="http://www.w3.org/2000/svg">
<path d="M16.5 26.5V30.5C9.87258 30.5 4.5 35.8726 4.5 42.5H0.5C0.5 33.6634 7.66344 26.5 16.5 26.5ZM16.5 24.5C9.87 24.5 4.5 19.13 4.5 12.5C4.5 5.87 9.87 0.5 16.5 0.5C23.13 0.5 28.5 5.87 28.5 12.5C28.5 19.13 23.13 24.5 16.5 24.5ZM16.5 20.5C20.92 20.5 24.5 16.92 24.5 12.5C24.5 8.08 20.92 4.5 16.5 4.5C12.08 4.5 8.5 8.08 8.5 12.5C8.5 16.92 12.08 20.5 16.5 20.5ZM34.5 32.5H36.5V42.5H20.5V32.5H22.5V30.5C22.5 27.1862 25.1862 24.5 28.5 24.5C31.8138 24.5 34.5 27.1862 34.5 30.5V32.5ZM30.5 32.5V30.5C30.5 29.3954 29.6046 28.5 28.5 28.5C27.3954 28.5 26.5 29.3954 26.5 30.5V32.5H30.5Z" fill="white"/>
</svg>
