<svg width="38" height="44" viewBox="0 0 38 44" fill="none" xmlns="http://www.w3.org/2000/svg">
<path d="M16.5 26.5V30.5C9.87258 30.5 4.5 35.8726 4.5 42.5H0.5C0.5 33.6634 7.66344 26.5 16.5 26.5ZM16.5 24.5C9.87 24.5 4.5 19.13 4.5 12.5C4.5 5.87 9.87 0.5 16.5 0.5C23.13 0.5 28.5 5.87 28.5 12.5C28.5 19.13 23.13 24.5 16.5 24.5ZM16.5 20.5C20.92 20.5 24.5 16.92 24.5 12.5C24.5 8.08 20.92 4.5 16.5 4.5C12.08 4.5 8.5 8.08 8.5 12.5C8.5 16.92 12.08 20.5 16.5 20.5ZM21.6892 36.123C21.5654 35.6022 21.5 35.0588 21.5 34.5C21.5 33.9414 21.5654 33.398 21.689 32.8772L19.7058 31.7322L21.7058 28.268L23.6904 29.4138C24.4766 28.6702 25.4352 28.1068 26.5 27.7898V25.5H30.5V27.7898C31.5648 28.1068 32.5232 28.6702 33.3094 29.4138L35.2942 28.2678L37.2944 31.732L35.311 32.877C35.4346 33.398 35.5 33.9414 35.5 34.5C35.5 35.0586 35.4346 35.602 35.311 36.1228L37.2944 37.2678L35.2944 40.732L33.3096 39.586C32.5234 40.3298 31.565 40.8932 30.5002 41.21V43.5H26.5002V41.2102C25.4354 40.8934 24.4768 40.33 23.6906 39.5862L21.706 40.7322L19.7058 37.268L21.6892 36.123ZM28.5 37.5C30.1568 37.5 31.5 36.1568 31.5 34.5C31.5 32.8432 30.1568 31.5 28.5 31.5C26.8432 31.5 25.5 32.8432 25.5 34.5C25.5 36.1568 26.8432 37.5 28.5 37.5Z" fill="white"/>
</svg>
