<svg width="92" height="84" viewBox="0 0 92 84" fill="none" xmlns="http://www.w3.org/2000/svg">
<path d="M79.5002 50.5V63H92.0002V71.3333H79.5002V83.8333H71.1668V71.3333H58.6668V63H71.1668V50.5H79.5002ZM79.5343 0.5C81.8168 0.5 83.6668 2.35396 83.6668 4.63917V42.1667H75.3335V8.83333H8.66683V67.1625L50.3335 25.5L62.8335 38V49.7875L50.3335 37.285L20.446 67.1667H50.3335V75.5H4.466C2.1837 75.5 0.333496 73.6463 0.333496 71.3608V4.63917C0.333496 2.35317 2.23062 0.5 4.466 0.5H79.5343ZM25.3335 17.1667C29.9359 17.1667 33.6668 20.8976 33.6668 25.5C33.6668 30.1025 29.9359 33.8333 25.3335 33.8333C20.7311 33.8333 17.0002 30.1025 17.0002 25.5C17.0002 20.8976 20.7311 17.1667 25.3335 17.1667Z" fill="white"/>
</svg>
