<svg width="26" height="25" viewBox="0 0 26 25" fill="none" xmlns="http://www.w3.org/2000/svg">
<path d="M13 25C6.09644 25 0.5 19.4035 0.5 12.5C0.5 5.59644 6.09644 0 13 0C19.9035 0 25.5 5.59644 25.5 12.5C25.5 19.4035 19.9035 25 13 25ZM13 22.5C18.5229 22.5 23 18.0229 23 12.5C23 6.97715 18.5229 2.5 13 2.5C7.47715 2.5 3 6.97715 3 12.5C3 18.0229 7.47715 22.5 13 22.5ZM11.75 16.25H14.25V18.75H11.75V16.25ZM14.25 14.1939V15H11.75V13.125C11.75 12.4346 12.3096 11.875 13 11.875C14.0355 11.875 14.875 11.0355 14.875 10C14.875 8.96446 14.0355 8.125 13 8.125C12.0904 8.125 11.332 8.77279 11.161 9.63221L8.70914 9.14183C9.10796 7.13649 10.8775 5.625 13 5.625C15.4163 5.625 17.375 7.58375 17.375 10C17.375 11.9819 16.0571 13.656 14.25 14.1939Z" fill="white"/>
</svg>
