<svg width="30" height="31" viewBox="0 0 30 31" fill="none" xmlns="http://www.w3.org/2000/svg">
<path d="M8.75 14.875C5.6434 14.875 3.125 12.3566 3.125 9.25C3.125 6.1434 5.6434 3.625 8.75 3.625C11.8566 3.625 14.375 6.1434 14.375 9.25C14.375 12.3566 11.8566 14.875 8.75 14.875ZM8.75 27.375C5.6434 27.375 3.125 24.8566 3.125 21.75C3.125 18.6434 5.6434 16.125 8.75 16.125C11.8566 16.125 14.375 18.6434 14.375 21.75C14.375 24.8566 11.8566 27.375 8.75 27.375ZM21.25 14.875C18.1434 14.875 15.625 12.3566 15.625 9.25C15.625 6.1434 18.1434 3.625 21.25 3.625C24.3566 3.625 26.875 6.1434 26.875 9.25C26.875 12.3566 24.3566 14.875 21.25 14.875ZM21.25 27.375C18.1434 27.375 15.625 24.8566 15.625 21.75C15.625 18.6434 18.1434 16.125 21.25 16.125C24.3566 16.125 26.875 18.6434 26.875 21.75C26.875 24.8566 24.3566 27.375 21.25 27.375ZM8.75 12.375C10.4759 12.375 11.875 10.9759 11.875 9.25C11.875 7.52411 10.4759 6.125 8.75 6.125C7.02411 6.125 5.625 7.52411 5.625 9.25C5.625 10.9759 7.02411 12.375 8.75 12.375ZM8.75 24.875C10.4759 24.875 11.875 23.4759 11.875 21.75C11.875 20.0241 10.4759 18.625 8.75 18.625C7.02411 18.625 5.625 20.0241 5.625 21.75C5.625 23.4759 7.02411 24.875 8.75 24.875ZM21.25 12.375C22.9759 12.375 24.375 10.9759 24.375 9.25C24.375 7.52411 22.9759 6.125 21.25 6.125C19.5241 6.125 18.125 7.52411 18.125 9.25C18.125 10.9759 19.5241 12.375 21.25 12.375ZM21.25 24.875C22.9759 24.875 24.375 23.4759 24.375 21.75C24.375 20.0241 22.9759 18.625 21.25 18.625C19.5241 18.625 18.125 20.0241 18.125 21.75C18.125 23.4759 19.5241 24.875 21.25 24.875Z" fill="white"/>
</svg>
