<svg width="29" height="34" viewBox="0 0 29 34" fill="none" xmlns="http://www.w3.org/2000/svg">
<path d="M14.5 29.2197L22.1308 21.5888C26.3452 17.3745 26.3452 10.5416 22.1308 6.32714C17.9165 2.11274 11.0835 2.11274 6.86914 6.32714C2.65473 10.5416 2.65473 17.3745 6.86914 21.5888L14.5 29.2197ZM14.5 33.5802L4.68889 23.7692C-0.729632 18.3505 -0.729632 9.56543 4.68889 4.1469C10.1074 -1.27162 18.8925 -1.27162 24.3112 4.1469C29.7297 9.56543 29.7297 18.3505 24.3112 23.7692L14.5 33.5802ZM14.5 17.0413C16.2029 17.0413 17.5833 15.6609 17.5833 13.958C17.5833 12.2551 16.2029 10.8747 14.5 10.8747C12.7971 10.8747 11.4167 12.2551 11.4167 13.958C11.4167 15.6609 12.7971 17.0413 14.5 17.0413ZM14.5 20.1247C11.0942 20.1247 8.33333 17.3637 8.33333 13.958C8.33333 10.5522 11.0942 7.79134 14.5 7.79134C17.9057 7.79134 20.6667 10.5522 20.6667 13.958C20.6667 17.3637 17.9057 20.1247 14.5 20.1247Z" fill="white"/>
</svg>
