<svg width="23" height="22" viewBox="0 0 23 22" fill="none" xmlns="http://www.w3.org/2000/svg">
<path d="M17.3827 18.2968C15.6814 19.3755 13.6638 20.0002 11.5003 20.0002C6.10812 20.0002 1.62215 16.1204 0.681641 11.0002C1.11832 8.62283 2.31932 6.5129 4.02047 4.93457L0.893661 1.80777L2.30788 0.393555L22.1069 20.1925L20.6927 21.6068L17.3827 18.2968ZM5.4356 6.3497C4.10673 7.56015 3.1378 9.1672 2.72278 11.0002C3.64022 15.0521 7.2646 18.0002 11.5003 18.0002C13.0997 18.0002 14.612 17.5798 15.9243 16.8384L13.896 14.8101C13.2023 15.2472 12.3808 15.5002 11.5003 15.5002C9.01498 15.5002 7.00026 13.4854 7.00026 11.0002C7.00026 10.1196 7.25317 9.2981 7.69031 8.60442L5.4356 6.3497ZM12.4139 13.328L9.17246 10.0866C9.0613 10.3696 9.00026 10.6777 9.00026 11.0002C9.00026 12.3809 10.1196 13.5002 11.5003 13.5002C11.8227 13.5002 12.1309 13.4391 12.4139 13.328ZM20.3068 15.5925L18.876 14.1617C19.5319 13.2268 20.0154 12.1586 20.2777 11.0002C19.3603 6.94818 15.7359 4.00016 11.5003 4.00016C10.6544 4.00016 9.8329 4.11773 9.05249 4.33818L7.47446 2.76015C8.72127 2.26959 10.0793 2.00016 11.5003 2.00016C16.8924 2.00016 21.3784 5.87993 22.3189 11.0002C22.0067 12.6998 21.3038 14.2628 20.3068 15.5925ZM11.2229 6.50857C11.3146 6.503 11.4071 6.50016 11.5003 6.50016C13.9855 6.50016 16.0003 8.51488 16.0003 11.0002C16.0003 11.0933 15.9974 11.1858 15.9919 11.2775L11.2229 6.50857Z" fill="white"/>
</svg>
