<svg width="33" height="33" viewBox="0 0 33 33" fill="none" xmlns="http://www.w3.org/2000/svg">
<path d="M14.4167 0.166504C22.2827 0.166504 28.6667 6.5505 28.6667 14.4165C28.6667 22.2825 22.2827 28.6665 14.4167 28.6665C6.55075 28.6665 0.166748 22.2825 0.166748 14.4165C0.166748 6.5505 6.55075 0.166504 14.4167 0.166504ZM14.4167 25.4998C20.5403 25.4998 25.5001 20.54 25.5001 14.4165C25.5001 8.29296 20.5403 3.33317 14.4167 3.33317C8.29321 3.33317 3.33341 8.29296 3.33341 14.4165C3.33341 20.54 8.29321 25.4998 14.4167 25.4998ZM27.8518 25.6124L32.3301 30.0907L30.091 32.3299L25.6127 27.8516L27.8518 25.6124Z" fill="#AEAEAE"/>
</svg>
